<svg width="150%" height="320" viewBox="0 0 1440 320" xmlns="http://www.w3.org/2000/svg">
  <defs>
    <linearGradient id="waveGradient" x1="0%" y1="100%" x2="0%" y2="0%">
      <stop offset="0%" stop-color="#ecf7ff" />
      <stop offset="100%" stop-color="#e0f0ff" /> <!-- Cyan 400 -->
    </linearGradient>
  </defs>
  <path fill="url(#waveGradient)" fill-opacity="1" 
  d="M0,224L40,208C80,192,160,160,240,160C320,160,400,192,480,208C560,
  224,640,224,720,192C800,160,880,96,960,101.3C1040,107,1120,181,1200,
  213.3C1280,245,1360,235,1400,229.3L1440,224L1440,320L1400,320C1360,320,
  1280,320,1200,320C1120,320,1040,320,960,320C880,320,800,320,720,320C640,
  320,560,320,480,320C400,320,320,320,240,320C160,320,80,320,40,320L0,320Z"
   transform="rotate(180 720 160)"></path>
</svg>
